<svg width="40" height="40" viewBox="0 0 40 40" fill="none" xmlns="http://www.w3.org/2000/svg">
<rect width="40" height="40" rx="20" fill="white"/>
<path fill-rule="evenodd" clip-rule="evenodd" d="M10 11C10 10.4477 10.4477 10 11 10H27C28.6569 10 30 11.3432 30 13V21.5C30 23.1569 28.6569 24.5 27 24.5H18.5C17.9477 24.5 17.5 24.0523 17.5 23.5C17.5 22.9477 17.9477 22.5 18.5 22.5H27C27.5523 22.5 28 22.0523 28 21.5V13C28 12.4477 27.5523 12 27 12H11C10.4477 12 10 11.5523 10 11Z" fill="#1A96F0"/>
<path fill-rule="evenodd" clip-rule="evenodd" d="M18 15C18 14.4477 18.4477 14 19 14H26C26.5523 14 27 14.4477 27 15C27 15.5523 26.5523 16 26 16H19C18.4477 16 18 15.5523 18 15Z" fill="#1A96F0"/>
<path fill-rule="evenodd" clip-rule="evenodd" d="M10.25 16C10.25 14.4812 11.4812 13.25 13 13.25C14.5188 13.25 15.75 14.4812 15.75 16C15.75 17.5188 14.5188 18.75 13 18.75C11.4812 18.75 10.25 17.5188 10.25 16Z" fill="#1A96F0"/>
<path fill-rule="evenodd" clip-rule="evenodd" d="M10.0002 21.4999C10.0002 20.3954 10.8956 19.5 12.0002 19.5H20.5C21.0523 19.5 21.5 19.9477 21.5 20.5C21.5 21.0523 21.0523 21.5 20.5 21.5H15.9923L16 25V29C16 29.5523 15.5523 30 15 30C14.4477 30 14 29.5523 14 29V26H12V29C12 29.5523 11.5523 30 11 30C10.4477 30 10 29.5523 10 29L10.0002 21.4999Z" fill="#1A96F0"/>
</svg>
